<mxfile host="app.diagrams.net" modified="2021-05-13T18:37:09.264Z" agent="5.0 (Windows NT 10.0; Win64; x64) AppleWebKit/537.36 (KHTML, like Gecko) Chrome/90.0.4430.93 Safari/537.36 Edg/90.0.818.56" etag="j0rPkvGNf5MH22i0hDKu" version="14.6.13" type="github">
  <diagram id="C5RBs43oDa-KdzZeNtuy" name="Page-1">
    <mxGraphModel dx="1673" dy="889" grid="1" gridSize="10" guides="1" tooltips="1" connect="1" arrows="1" fold="1" page="1" pageScale="1" pageWidth="1920" pageHeight="1200" math="0" shadow="0">
      <root>
        <mxCell id="WIyWlLk6GJQsqaUBKTNV-0" />
        <mxCell id="WIyWlLk6GJQsqaUBKTNV-1" parent="WIyWlLk6GJQsqaUBKTNV-0" />
        <mxCell id="WIyWlLk6GJQsqaUBKTNV-2" value="" style="html=1;jettySize=auto;orthogonalLoop=1;fontSize=11;endArrow=block;endFill=0;endSize=8;strokeWidth=1;shadow=0;labelBackgroundColor=none;edgeStyle=orthogonalEdgeStyle;" parent="WIyWlLk6GJQsqaUBKTNV-1" edge="1">
          <mxGeometry relative="1" as="geometry">
            <mxPoint x="430" y="72" as="sourcePoint" />
            <mxPoint x="430" y="122" as="targetPoint" />
          </mxGeometry>
        </mxCell>
        <mxCell id="QUAZW8t2TdC763v6tmOx-5" value="" style="edgeStyle=orthogonalEdgeStyle;curved=0;rounded=1;sketch=0;orthogonalLoop=1;jettySize=auto;html=1;" edge="1" parent="WIyWlLk6GJQsqaUBKTNV-1" source="WIyWlLk6GJQsqaUBKTNV-10" target="QUAZW8t2TdC763v6tmOx-4">
          <mxGeometry relative="1" as="geometry" />
        </mxCell>
        <mxCell id="QUAZW8t2TdC763v6tmOx-10" value="" style="edgeStyle=orthogonalEdgeStyle;curved=0;rounded=1;sketch=0;orthogonalLoop=1;jettySize=auto;html=1;" edge="1" parent="WIyWlLk6GJQsqaUBKTNV-1" source="WIyWlLk6GJQsqaUBKTNV-10" target="QUAZW8t2TdC763v6tmOx-9">
          <mxGeometry relative="1" as="geometry" />
        </mxCell>
        <mxCell id="WIyWlLk6GJQsqaUBKTNV-10" value="Valid Password?" style="rhombus;whiteSpace=wrap;html=1;shadow=0;fontFamily=Helvetica;fontSize=12;align=center;strokeWidth=1;spacing=6;spacingTop=-4;" parent="WIyWlLk6GJQsqaUBKTNV-1" vertex="1">
          <mxGeometry x="370" y="214.38" width="120" height="100" as="geometry" />
        </mxCell>
        <mxCell id="QUAZW8t2TdC763v6tmOx-1" value="Start" style="ellipse;whiteSpace=wrap;html=1;rounded=0;sketch=0;" vertex="1" parent="WIyWlLk6GJQsqaUBKTNV-1">
          <mxGeometry x="390" y="22" width="80" height="50" as="geometry" />
        </mxCell>
        <mxCell id="QUAZW8t2TdC763v6tmOx-3" value="" style="edgeStyle=orthogonalEdgeStyle;curved=0;rounded=1;sketch=0;orthogonalLoop=1;jettySize=auto;html=1;" edge="1" parent="WIyWlLk6GJQsqaUBKTNV-1" source="QUAZW8t2TdC763v6tmOx-2" target="WIyWlLk6GJQsqaUBKTNV-10">
          <mxGeometry relative="1" as="geometry" />
        </mxCell>
        <mxCell id="QUAZW8t2TdC763v6tmOx-2" value="Reads Password" style="rounded=1;whiteSpace=wrap;html=1;sketch=0;" vertex="1" parent="WIyWlLk6GJQsqaUBKTNV-1">
          <mxGeometry x="370" y="130.63" width="120" height="60" as="geometry" />
        </mxCell>
        <mxCell id="QUAZW8t2TdC763v6tmOx-6" style="edgeStyle=orthogonalEdgeStyle;curved=0;rounded=1;sketch=0;orthogonalLoop=1;jettySize=auto;html=1;" edge="1" parent="WIyWlLk6GJQsqaUBKTNV-1" source="QUAZW8t2TdC763v6tmOx-4">
          <mxGeometry relative="1" as="geometry">
            <mxPoint x="430" y="92" as="targetPoint" />
            <Array as="points">
              <mxPoint x="550" y="392" />
              <mxPoint x="550" y="92" />
            </Array>
          </mxGeometry>
        </mxCell>
        <mxCell id="QUAZW8t2TdC763v6tmOx-4" value="If it&#39;s not valid" style="rhombus;whiteSpace=wrap;html=1;shadow=0;fontFamily=Helvetica;fontSize=12;align=center;strokeWidth=1;spacing=6;spacingTop=-4;" vertex="1" parent="WIyWlLk6GJQsqaUBKTNV-1">
          <mxGeometry x="370" y="342" width="120" height="100" as="geometry" />
        </mxCell>
        <mxCell id="QUAZW8t2TdC763v6tmOx-9" value="End" style="ellipse;whiteSpace=wrap;html=1;shadow=0;strokeWidth=1;spacing=6;spacingTop=-4;" vertex="1" parent="WIyWlLk6GJQsqaUBKTNV-1">
          <mxGeometry x="270" y="425.63" width="90" height="40" as="geometry" />
        </mxCell>
        <mxCell id="QUAZW8t2TdC763v6tmOx-15" style="edgeStyle=orthogonalEdgeStyle;curved=0;rounded=1;sketch=0;orthogonalLoop=1;jettySize=auto;html=1;exitX=0.5;exitY=1;exitDx=0;exitDy=0;entryX=0.5;entryY=0;entryDx=0;entryDy=0;" edge="1" parent="WIyWlLk6GJQsqaUBKTNV-1" source="QUAZW8t2TdC763v6tmOx-11" target="QUAZW8t2TdC763v6tmOx-14">
          <mxGeometry relative="1" as="geometry" />
        </mxCell>
        <mxCell id="QUAZW8t2TdC763v6tmOx-11" value="validPassword&lt;br&gt;(password)" style="ellipse;whiteSpace=wrap;html=1;rounded=0;sketch=0;" vertex="1" parent="WIyWlLk6GJQsqaUBKTNV-1">
          <mxGeometry x="770" y="18.13" width="110" height="62.5" as="geometry" />
        </mxCell>
        <mxCell id="QUAZW8t2TdC763v6tmOx-16" style="edgeStyle=orthogonalEdgeStyle;curved=0;rounded=1;sketch=0;orthogonalLoop=1;jettySize=auto;html=1;exitX=0.5;exitY=1;exitDx=0;exitDy=0;" edge="1" parent="WIyWlLk6GJQsqaUBKTNV-1" source="QUAZW8t2TdC763v6tmOx-14">
          <mxGeometry relative="1" as="geometry">
            <mxPoint x="825" y="214.38" as="targetPoint" />
          </mxGeometry>
        </mxCell>
        <mxCell id="QUAZW8t2TdC763v6tmOx-14" value="valid = True&lt;br&gt;upper = 0&lt;br&gt;lower = 0" style="rounded=0;whiteSpace=wrap;html=1;sketch=0;" vertex="1" parent="WIyWlLk6GJQsqaUBKTNV-1">
          <mxGeometry x="750" y="114.38" width="150" height="60" as="geometry" />
        </mxCell>
        <mxCell id="QUAZW8t2TdC763v6tmOx-18" style="edgeStyle=orthogonalEdgeStyle;curved=0;rounded=1;sketch=0;orthogonalLoop=1;jettySize=auto;html=1;" edge="1" parent="WIyWlLk6GJQsqaUBKTNV-1" source="QUAZW8t2TdC763v6tmOx-17" target="QUAZW8t2TdC763v6tmOx-19">
          <mxGeometry relative="1" as="geometry">
            <mxPoint x="825" y="404.38" as="targetPoint" />
          </mxGeometry>
        </mxCell>
        <mxCell id="QUAZW8t2TdC763v6tmOx-23" style="edgeStyle=orthogonalEdgeStyle;curved=0;rounded=1;sketch=0;orthogonalLoop=1;jettySize=auto;html=1;exitX=1;exitY=0.5;exitDx=0;exitDy=0;" edge="1" parent="WIyWlLk6GJQsqaUBKTNV-1" source="QUAZW8t2TdC763v6tmOx-17" target="QUAZW8t2TdC763v6tmOx-24">
          <mxGeometry relative="1" as="geometry">
            <mxPoint x="980" y="280.38" as="targetPoint" />
          </mxGeometry>
        </mxCell>
        <mxCell id="QUAZW8t2TdC763v6tmOx-17" value="&lt;font style=&quot;font-size: 13px&quot;&gt;validatePasswordLength&lt;br&gt;(password)&lt;br&gt;&lt;/font&gt;" style="rhombus;whiteSpace=wrap;html=1;rounded=0;sketch=0;" vertex="1" parent="WIyWlLk6GJQsqaUBKTNV-1">
          <mxGeometry x="737.5" y="214.38" width="175" height="131.25" as="geometry" />
        </mxCell>
        <mxCell id="QUAZW8t2TdC763v6tmOx-21" value="" style="edgeStyle=orthogonalEdgeStyle;curved=0;rounded=1;sketch=0;orthogonalLoop=1;jettySize=auto;html=1;" edge="1" parent="WIyWlLk6GJQsqaUBKTNV-1" source="QUAZW8t2TdC763v6tmOx-19" target="QUAZW8t2TdC763v6tmOx-22">
          <mxGeometry relative="1" as="geometry">
            <mxPoint x="825" y="504.38" as="targetPoint" />
          </mxGeometry>
        </mxCell>
        <mxCell id="QUAZW8t2TdC763v6tmOx-19" value="countUppercaseLowercaseDigit(password, upper, lower, digit)" style="rounded=1;whiteSpace=wrap;html=1;sketch=0;" vertex="1" parent="WIyWlLk6GJQsqaUBKTNV-1">
          <mxGeometry x="695" y="394.38" width="260" height="60" as="geometry" />
        </mxCell>
        <mxCell id="QUAZW8t2TdC763v6tmOx-22" value="A" style="ellipse;whiteSpace=wrap;html=1;aspect=fixed;rounded=0;sketch=0;" vertex="1" parent="WIyWlLk6GJQsqaUBKTNV-1">
          <mxGeometry x="795" y="494.38" width="60" height="60" as="geometry" />
        </mxCell>
        <mxCell id="QUAZW8t2TdC763v6tmOx-25" style="edgeStyle=orthogonalEdgeStyle;curved=0;rounded=1;sketch=0;orthogonalLoop=1;jettySize=auto;html=1;" edge="1" parent="WIyWlLk6GJQsqaUBKTNV-1" source="QUAZW8t2TdC763v6tmOx-24">
          <mxGeometry relative="1" as="geometry">
            <mxPoint x="830" y="364.38" as="targetPoint" />
            <Array as="points">
              <mxPoint x="1010" y="364.38" />
            </Array>
          </mxGeometry>
        </mxCell>
        <mxCell id="QUAZW8t2TdC763v6tmOx-24" value="valid = False" style="rounded=0;whiteSpace=wrap;html=1;sketch=0;" vertex="1" parent="WIyWlLk6GJQsqaUBKTNV-1">
          <mxGeometry x="960" y="262.82" width="100" height="34.37" as="geometry" />
        </mxCell>
        <mxCell id="QUAZW8t2TdC763v6tmOx-26" value="True" style="text;html=1;align=center;verticalAlign=middle;resizable=0;points=[];autosize=1;strokeColor=none;" vertex="1" parent="WIyWlLk6GJQsqaUBKTNV-1">
          <mxGeometry x="880" y="334.38" width="40" height="20" as="geometry" />
        </mxCell>
        <mxCell id="QUAZW8t2TdC763v6tmOx-27" value="True" style="text;html=1;align=center;verticalAlign=middle;resizable=0;points=[];autosize=1;strokeColor=none;" vertex="1" parent="WIyWlLk6GJQsqaUBKTNV-1">
          <mxGeometry x="320" y="232" width="40" height="20" as="geometry" />
        </mxCell>
        <mxCell id="QUAZW8t2TdC763v6tmOx-28" value="False" style="text;html=1;align=center;verticalAlign=middle;resizable=0;points=[];autosize=1;strokeColor=none;" vertex="1" parent="WIyWlLk6GJQsqaUBKTNV-1">
          <mxGeometry x="920" y="254.38" width="40" height="20" as="geometry" />
        </mxCell>
        <mxCell id="QUAZW8t2TdC763v6tmOx-29" value="False" style="text;html=1;align=center;verticalAlign=middle;resizable=0;points=[];autosize=1;strokeColor=none;" vertex="1" parent="WIyWlLk6GJQsqaUBKTNV-1">
          <mxGeometry x="450" y="342" width="40" height="20" as="geometry" />
        </mxCell>
        <mxCell id="QUAZW8t2TdC763v6tmOx-33" value="" style="edgeStyle=orthogonalEdgeStyle;curved=0;rounded=1;sketch=0;orthogonalLoop=1;jettySize=auto;html=1;" edge="1" parent="WIyWlLk6GJQsqaUBKTNV-1" source="QUAZW8t2TdC763v6tmOx-31" target="QUAZW8t2TdC763v6tmOx-32">
          <mxGeometry relative="1" as="geometry" />
        </mxCell>
        <mxCell id="QUAZW8t2TdC763v6tmOx-31" value="A" style="ellipse;whiteSpace=wrap;html=1;aspect=fixed;rounded=0;sketch=0;" vertex="1" parent="WIyWlLk6GJQsqaUBKTNV-1">
          <mxGeometry x="1100" y="18.13" width="60" height="60" as="geometry" />
        </mxCell>
        <mxCell id="QUAZW8t2TdC763v6tmOx-35" value="" style="edgeStyle=orthogonalEdgeStyle;curved=0;rounded=1;sketch=0;orthogonalLoop=1;jettySize=auto;html=1;" edge="1" parent="WIyWlLk6GJQsqaUBKTNV-1" source="QUAZW8t2TdC763v6tmOx-32" target="QUAZW8t2TdC763v6tmOx-34">
          <mxGeometry relative="1" as="geometry" />
        </mxCell>
        <mxCell id="QUAZW8t2TdC763v6tmOx-37" value="" style="edgeStyle=orthogonalEdgeStyle;curved=0;rounded=1;sketch=0;orthogonalLoop=1;jettySize=auto;html=1;" edge="1" parent="WIyWlLk6GJQsqaUBKTNV-1" source="QUAZW8t2TdC763v6tmOx-32" target="QUAZW8t2TdC763v6tmOx-36">
          <mxGeometry relative="1" as="geometry" />
        </mxCell>
        <mxCell id="QUAZW8t2TdC763v6tmOx-32" value="upper &amp;lt; 2 ?" style="rhombus;whiteSpace=wrap;html=1;rounded=0;sketch=0;" vertex="1" parent="WIyWlLk6GJQsqaUBKTNV-1">
          <mxGeometry x="1080" y="125.63" width="100" height="100" as="geometry" />
        </mxCell>
        <mxCell id="QUAZW8t2TdC763v6tmOx-42" style="edgeStyle=orthogonalEdgeStyle;curved=0;rounded=1;sketch=0;orthogonalLoop=1;jettySize=auto;html=1;exitX=0.5;exitY=1;exitDx=0;exitDy=0;" edge="1" parent="WIyWlLk6GJQsqaUBKTNV-1" source="QUAZW8t2TdC763v6tmOx-34">
          <mxGeometry relative="1" as="geometry">
            <mxPoint x="1135" y="245.63" as="targetPoint" />
            <Array as="points">
              <mxPoint x="1275" y="245.63" />
            </Array>
          </mxGeometry>
        </mxCell>
        <mxCell id="QUAZW8t2TdC763v6tmOx-34" value="valid = False" style="rounded=0;whiteSpace=wrap;html=1;sketch=0;" vertex="1" parent="WIyWlLk6GJQsqaUBKTNV-1">
          <mxGeometry x="1215" y="160.63" width="120" height="30" as="geometry" />
        </mxCell>
        <mxCell id="QUAZW8t2TdC763v6tmOx-47" style="edgeStyle=orthogonalEdgeStyle;curved=0;rounded=1;sketch=0;orthogonalLoop=1;jettySize=auto;html=1;exitX=1;exitY=0.5;exitDx=0;exitDy=0;entryX=0;entryY=0.5;entryDx=0;entryDy=0;" edge="1" parent="WIyWlLk6GJQsqaUBKTNV-1" source="QUAZW8t2TdC763v6tmOx-36" target="QUAZW8t2TdC763v6tmOx-46">
          <mxGeometry relative="1" as="geometry" />
        </mxCell>
        <mxCell id="QUAZW8t2TdC763v6tmOx-50" value="" style="edgeStyle=orthogonalEdgeStyle;curved=0;rounded=1;sketch=0;orthogonalLoop=1;jettySize=auto;html=1;" edge="1" parent="WIyWlLk6GJQsqaUBKTNV-1" source="QUAZW8t2TdC763v6tmOx-36" target="QUAZW8t2TdC763v6tmOx-49">
          <mxGeometry relative="1" as="geometry" />
        </mxCell>
        <mxCell id="QUAZW8t2TdC763v6tmOx-36" value="lower &amp;lt; 1 ?" style="rhombus;whiteSpace=wrap;html=1;rounded=0;sketch=0;" vertex="1" parent="WIyWlLk6GJQsqaUBKTNV-1">
          <mxGeometry x="1075" y="269.63" width="110" height="110" as="geometry" />
        </mxCell>
        <mxCell id="QUAZW8t2TdC763v6tmOx-39" value="True" style="text;html=1;align=center;verticalAlign=middle;resizable=0;points=[];autosize=1;strokeColor=none;" vertex="1" parent="WIyWlLk6GJQsqaUBKTNV-1">
          <mxGeometry x="1165" y="145.63" width="40" height="20" as="geometry" />
        </mxCell>
        <mxCell id="QUAZW8t2TdC763v6tmOx-56" style="edgeStyle=orthogonalEdgeStyle;curved=0;rounded=1;sketch=0;orthogonalLoop=1;jettySize=auto;html=1;exitX=0.5;exitY=1;exitDx=0;exitDy=0;" edge="1" parent="WIyWlLk6GJQsqaUBKTNV-1" source="QUAZW8t2TdC763v6tmOx-46">
          <mxGeometry relative="1" as="geometry">
            <mxPoint x="1135" y="395.63" as="targetPoint" />
            <Array as="points">
              <mxPoint x="1275" y="395.63" />
            </Array>
          </mxGeometry>
        </mxCell>
        <mxCell id="QUAZW8t2TdC763v6tmOx-46" value="valid = False" style="rounded=0;whiteSpace=wrap;html=1;sketch=0;" vertex="1" parent="WIyWlLk6GJQsqaUBKTNV-1">
          <mxGeometry x="1215" y="309.63" width="120" height="30" as="geometry" />
        </mxCell>
        <mxCell id="QUAZW8t2TdC763v6tmOx-48" value="True" style="text;html=1;align=center;verticalAlign=middle;resizable=0;points=[];autosize=1;strokeColor=none;" vertex="1" parent="WIyWlLk6GJQsqaUBKTNV-1">
          <mxGeometry x="1175" y="285.63" width="40" height="20" as="geometry" />
        </mxCell>
        <mxCell id="QUAZW8t2TdC763v6tmOx-52" style="edgeStyle=orthogonalEdgeStyle;curved=0;rounded=1;sketch=0;orthogonalLoop=1;jettySize=auto;html=1;exitX=1;exitY=0.5;exitDx=0;exitDy=0;entryX=0;entryY=0.5;entryDx=0;entryDy=0;" edge="1" parent="WIyWlLk6GJQsqaUBKTNV-1" source="QUAZW8t2TdC763v6tmOx-49" target="QUAZW8t2TdC763v6tmOx-51">
          <mxGeometry relative="1" as="geometry" />
        </mxCell>
        <mxCell id="QUAZW8t2TdC763v6tmOx-54" style="edgeStyle=orthogonalEdgeStyle;curved=0;rounded=1;sketch=0;orthogonalLoop=1;jettySize=auto;html=1;exitX=0.5;exitY=1;exitDx=0;exitDy=0;" edge="1" parent="WIyWlLk6GJQsqaUBKTNV-1" source="QUAZW8t2TdC763v6tmOx-49" target="QUAZW8t2TdC763v6tmOx-55">
          <mxGeometry relative="1" as="geometry">
            <mxPoint x="1130" y="575.63" as="targetPoint" />
          </mxGeometry>
        </mxCell>
        <mxCell id="QUAZW8t2TdC763v6tmOx-49" value="digits &amp;lt; 2 ?" style="rhombus;whiteSpace=wrap;html=1;rounded=0;sketch=0;" vertex="1" parent="WIyWlLk6GJQsqaUBKTNV-1">
          <mxGeometry x="1075" y="415.63" width="110" height="110" as="geometry" />
        </mxCell>
        <mxCell id="QUAZW8t2TdC763v6tmOx-57" style="edgeStyle=orthogonalEdgeStyle;curved=0;rounded=1;sketch=0;orthogonalLoop=1;jettySize=auto;html=1;" edge="1" parent="WIyWlLk6GJQsqaUBKTNV-1" source="QUAZW8t2TdC763v6tmOx-51">
          <mxGeometry relative="1" as="geometry">
            <mxPoint x="1135" y="535.63" as="targetPoint" />
            <Array as="points">
              <mxPoint x="1275" y="535.63" />
            </Array>
          </mxGeometry>
        </mxCell>
        <mxCell id="QUAZW8t2TdC763v6tmOx-51" value="valid = False" style="rounded=0;whiteSpace=wrap;html=1;sketch=0;" vertex="1" parent="WIyWlLk6GJQsqaUBKTNV-1">
          <mxGeometry x="1215" y="455.63" width="120" height="30" as="geometry" />
        </mxCell>
        <mxCell id="QUAZW8t2TdC763v6tmOx-53" value="True" style="text;html=1;align=center;verticalAlign=middle;resizable=0;points=[];autosize=1;strokeColor=none;" vertex="1" parent="WIyWlLk6GJQsqaUBKTNV-1">
          <mxGeometry x="1165" y="425.63" width="40" height="20" as="geometry" />
        </mxCell>
        <mxCell id="QUAZW8t2TdC763v6tmOx-55" value="return valid" style="rounded=0;whiteSpace=wrap;html=1;sketch=0;" vertex="1" parent="WIyWlLk6GJQsqaUBKTNV-1">
          <mxGeometry x="1070" y="551.88" width="120" height="30" as="geometry" />
        </mxCell>
        <mxCell id="QUAZW8t2TdC763v6tmOx-60" style="edgeStyle=orthogonalEdgeStyle;curved=0;rounded=1;sketch=0;orthogonalLoop=1;jettySize=auto;html=1;exitX=0.5;exitY=1;exitDx=0;exitDy=0;" edge="1" parent="WIyWlLk6GJQsqaUBKTNV-1" source="QUAZW8t2TdC763v6tmOx-59">
          <mxGeometry relative="1" as="geometry">
            <mxPoint x="1580" y="130" as="targetPoint" />
          </mxGeometry>
        </mxCell>
        <mxCell id="QUAZW8t2TdC763v6tmOx-59" value="countUppercaseLowercaseDigit(password, upper, lower, digit)" style="rounded=1;whiteSpace=wrap;html=1;sketch=0;" vertex="1" parent="WIyWlLk6GJQsqaUBKTNV-1">
          <mxGeometry x="1460" y="22" width="240" height="60" as="geometry" />
        </mxCell>
        <mxCell id="QUAZW8t2TdC763v6tmOx-63" value="" style="edgeStyle=orthogonalEdgeStyle;curved=0;rounded=1;sketch=0;orthogonalLoop=1;jettySize=auto;html=1;" edge="1" parent="WIyWlLk6GJQsqaUBKTNV-1" source="QUAZW8t2TdC763v6tmOx-61" target="QUAZW8t2TdC763v6tmOx-62">
          <mxGeometry relative="1" as="geometry" />
        </mxCell>
        <mxCell id="QUAZW8t2TdC763v6tmOx-61" value="c = 0" style="rounded=0;whiteSpace=wrap;html=1;sketch=0;" vertex="1" parent="WIyWlLk6GJQsqaUBKTNV-1">
          <mxGeometry x="1520" y="130.63" width="120" height="39.37" as="geometry" />
        </mxCell>
        <mxCell id="QUAZW8t2TdC763v6tmOx-65" style="edgeStyle=orthogonalEdgeStyle;curved=0;rounded=1;sketch=0;orthogonalLoop=1;jettySize=auto;html=1;exitX=0.5;exitY=1;exitDx=0;exitDy=0;entryX=0.5;entryY=0;entryDx=0;entryDy=0;" edge="1" parent="WIyWlLk6GJQsqaUBKTNV-1" source="QUAZW8t2TdC763v6tmOx-62" target="QUAZW8t2TdC763v6tmOx-64">
          <mxGeometry relative="1" as="geometry" />
        </mxCell>
        <mxCell id="QUAZW8t2TdC763v6tmOx-69" style="edgeStyle=orthogonalEdgeStyle;curved=0;rounded=1;sketch=0;orthogonalLoop=1;jettySize=auto;html=1;" edge="1" parent="WIyWlLk6GJQsqaUBKTNV-1" source="QUAZW8t2TdC763v6tmOx-62">
          <mxGeometry relative="1" as="geometry">
            <mxPoint x="1580" y="830" as="targetPoint" />
            <Array as="points">
              <mxPoint x="1860" y="264" />
              <mxPoint x="1860" y="830" />
            </Array>
          </mxGeometry>
        </mxCell>
        <mxCell id="QUAZW8t2TdC763v6tmOx-62" value="c &amp;lt; password.length()" style="rhombus;whiteSpace=wrap;html=1;rounded=0;sketch=0;" vertex="1" parent="WIyWlLk6GJQsqaUBKTNV-1">
          <mxGeometry x="1498" y="208.19" width="164" height="112.38" as="geometry" />
        </mxCell>
        <mxCell id="QUAZW8t2TdC763v6tmOx-67" style="edgeStyle=orthogonalEdgeStyle;curved=0;rounded=1;sketch=0;orthogonalLoop=1;jettySize=auto;html=1;exitX=0.5;exitY=1;exitDx=0;exitDy=0;entryX=0.5;entryY=0;entryDx=0;entryDy=0;" edge="1" parent="WIyWlLk6GJQsqaUBKTNV-1" source="QUAZW8t2TdC763v6tmOx-64" target="QUAZW8t2TdC763v6tmOx-66">
          <mxGeometry relative="1" as="geometry" />
        </mxCell>
        <mxCell id="QUAZW8t2TdC763v6tmOx-71" value="" style="edgeStyle=orthogonalEdgeStyle;curved=0;rounded=1;sketch=0;orthogonalLoop=1;jettySize=auto;html=1;" edge="1" parent="WIyWlLk6GJQsqaUBKTNV-1" source="QUAZW8t2TdC763v6tmOx-64" target="QUAZW8t2TdC763v6tmOx-70">
          <mxGeometry relative="1" as="geometry" />
        </mxCell>
        <mxCell id="QUAZW8t2TdC763v6tmOx-64" value="Current Character &amp;gt;= &#39;A&#39; &amp;amp;&amp;amp; &amp;lt;= &#39;Z&#39;" style="rhombus;whiteSpace=wrap;html=1;rounded=0;sketch=0;" vertex="1" parent="WIyWlLk6GJQsqaUBKTNV-1">
          <mxGeometry x="1469" y="354.38" width="222" height="115.62" as="geometry" />
        </mxCell>
        <mxCell id="QUAZW8t2TdC763v6tmOx-76" style="edgeStyle=orthogonalEdgeStyle;curved=0;rounded=1;sketch=0;orthogonalLoop=1;jettySize=auto;html=1;exitX=1;exitY=0.5;exitDx=0;exitDy=0;entryX=0;entryY=0.5;entryDx=0;entryDy=0;" edge="1" parent="WIyWlLk6GJQsqaUBKTNV-1" source="QUAZW8t2TdC763v6tmOx-66" target="QUAZW8t2TdC763v6tmOx-74">
          <mxGeometry relative="1" as="geometry" />
        </mxCell>
        <mxCell id="QUAZW8t2TdC763v6tmOx-78" style="edgeStyle=orthogonalEdgeStyle;curved=0;rounded=1;sketch=0;orthogonalLoop=1;jettySize=auto;html=1;exitX=0.5;exitY=1;exitDx=0;exitDy=0;entryX=0.5;entryY=0;entryDx=0;entryDy=0;" edge="1" parent="WIyWlLk6GJQsqaUBKTNV-1" source="QUAZW8t2TdC763v6tmOx-66" target="QUAZW8t2TdC763v6tmOx-68">
          <mxGeometry relative="1" as="geometry" />
        </mxCell>
        <mxCell id="QUAZW8t2TdC763v6tmOx-66" value="Current Character &amp;gt;= &#39;a&#39; &amp;amp;&amp;amp; &amp;lt;= &#39;z&#39;" style="rhombus;whiteSpace=wrap;html=1;rounded=0;sketch=0;" vertex="1" parent="WIyWlLk6GJQsqaUBKTNV-1">
          <mxGeometry x="1469" y="494.38" width="222" height="112.38" as="geometry" />
        </mxCell>
        <mxCell id="QUAZW8t2TdC763v6tmOx-80" style="edgeStyle=orthogonalEdgeStyle;curved=0;rounded=1;sketch=0;orthogonalLoop=1;jettySize=auto;html=1;exitX=1;exitY=0.5;exitDx=0;exitDy=0;entryX=0;entryY=0.5;entryDx=0;entryDy=0;" edge="1" parent="WIyWlLk6GJQsqaUBKTNV-1" source="QUAZW8t2TdC763v6tmOx-68" target="QUAZW8t2TdC763v6tmOx-79">
          <mxGeometry relative="1" as="geometry" />
        </mxCell>
        <mxCell id="QUAZW8t2TdC763v6tmOx-82" style="edgeStyle=orthogonalEdgeStyle;curved=0;rounded=1;sketch=0;orthogonalLoop=1;jettySize=auto;html=1;exitX=0.5;exitY=1;exitDx=0;exitDy=0;" edge="1" parent="WIyWlLk6GJQsqaUBKTNV-1" source="QUAZW8t2TdC763v6tmOx-68" target="QUAZW8t2TdC763v6tmOx-83">
          <mxGeometry relative="1" as="geometry">
            <mxPoint x="1580" y="810" as="targetPoint" />
          </mxGeometry>
        </mxCell>
        <mxCell id="QUAZW8t2TdC763v6tmOx-68" value="Current Character &amp;gt;= &#39;0&#39; &amp;amp;&amp;amp; &amp;lt;= &#39;9&#39;" style="rhombus;whiteSpace=wrap;html=1;rounded=0;sketch=0;" vertex="1" parent="WIyWlLk6GJQsqaUBKTNV-1">
          <mxGeometry x="1469" y="630" width="222" height="112.38" as="geometry" />
        </mxCell>
        <mxCell id="QUAZW8t2TdC763v6tmOx-75" style="edgeStyle=orthogonalEdgeStyle;curved=0;rounded=1;sketch=0;orthogonalLoop=1;jettySize=auto;html=1;exitX=1;exitY=0.5;exitDx=0;exitDy=0;" edge="1" parent="WIyWlLk6GJQsqaUBKTNV-1" source="QUAZW8t2TdC763v6tmOx-70">
          <mxGeometry relative="1" as="geometry">
            <mxPoint x="1860" y="412" as="targetPoint" />
          </mxGeometry>
        </mxCell>
        <mxCell id="QUAZW8t2TdC763v6tmOx-70" value="upper++" style="rounded=0;whiteSpace=wrap;html=1;sketch=0;" vertex="1" parent="WIyWlLk6GJQsqaUBKTNV-1">
          <mxGeometry x="1720" y="397.19" width="120" height="30" as="geometry" />
        </mxCell>
        <mxCell id="QUAZW8t2TdC763v6tmOx-77" style="edgeStyle=orthogonalEdgeStyle;curved=0;rounded=1;sketch=0;orthogonalLoop=1;jettySize=auto;html=1;exitX=1;exitY=0.5;exitDx=0;exitDy=0;" edge="1" parent="WIyWlLk6GJQsqaUBKTNV-1" source="QUAZW8t2TdC763v6tmOx-74">
          <mxGeometry relative="1" as="geometry">
            <mxPoint x="1860" y="551" as="targetPoint" />
          </mxGeometry>
        </mxCell>
        <mxCell id="QUAZW8t2TdC763v6tmOx-74" value="lower++" style="rounded=0;whiteSpace=wrap;html=1;sketch=0;" vertex="1" parent="WIyWlLk6GJQsqaUBKTNV-1">
          <mxGeometry x="1720" y="535.5699999999999" width="120" height="30" as="geometry" />
        </mxCell>
        <mxCell id="QUAZW8t2TdC763v6tmOx-81" style="edgeStyle=orthogonalEdgeStyle;curved=0;rounded=1;sketch=0;orthogonalLoop=1;jettySize=auto;html=1;exitX=1;exitY=0.5;exitDx=0;exitDy=0;" edge="1" parent="WIyWlLk6GJQsqaUBKTNV-1" source="QUAZW8t2TdC763v6tmOx-79">
          <mxGeometry relative="1" as="geometry">
            <mxPoint x="1860" y="686" as="targetPoint" />
          </mxGeometry>
        </mxCell>
        <mxCell id="QUAZW8t2TdC763v6tmOx-79" value="digit++" style="rounded=0;whiteSpace=wrap;html=1;sketch=0;" vertex="1" parent="WIyWlLk6GJQsqaUBKTNV-1">
          <mxGeometry x="1720" y="671.19" width="120" height="30" as="geometry" />
        </mxCell>
        <mxCell id="QUAZW8t2TdC763v6tmOx-83" value="return counter" style="rounded=0;whiteSpace=wrap;html=1;sketch=0;" vertex="1" parent="WIyWlLk6GJQsqaUBKTNV-1">
          <mxGeometry x="1520" y="880" width="120" height="60" as="geometry" />
        </mxCell>
        <mxCell id="QUAZW8t2TdC763v6tmOx-84" value="True" style="text;html=1;align=center;verticalAlign=middle;resizable=0;points=[];autosize=1;strokeColor=none;" vertex="1" parent="WIyWlLk6GJQsqaUBKTNV-1">
          <mxGeometry x="1670" y="370" width="40" height="20" as="geometry" />
        </mxCell>
        <mxCell id="QUAZW8t2TdC763v6tmOx-85" value="True" style="text;html=1;align=center;verticalAlign=middle;resizable=0;points=[];autosize=1;strokeColor=none;" vertex="1" parent="WIyWlLk6GJQsqaUBKTNV-1">
          <mxGeometry x="1670" y="510" width="40" height="20" as="geometry" />
        </mxCell>
        <mxCell id="QUAZW8t2TdC763v6tmOx-86" value="True" style="text;html=1;align=center;verticalAlign=middle;resizable=0;points=[];autosize=1;strokeColor=none;" vertex="1" parent="WIyWlLk6GJQsqaUBKTNV-1">
          <mxGeometry x="1680" y="650" width="40" height="20" as="geometry" />
        </mxCell>
        <mxCell id="QUAZW8t2TdC763v6tmOx-87" value="False" style="text;html=1;align=center;verticalAlign=middle;resizable=0;points=[];autosize=1;strokeColor=none;" vertex="1" parent="WIyWlLk6GJQsqaUBKTNV-1">
          <mxGeometry x="1510" y="325.63" width="40" height="20" as="geometry" />
        </mxCell>
        <mxCell id="QUAZW8t2TdC763v6tmOx-88" value="False" style="text;html=1;align=center;verticalAlign=middle;resizable=0;points=[];autosize=1;strokeColor=none;" vertex="1" parent="WIyWlLk6GJQsqaUBKTNV-1">
          <mxGeometry x="1510" y="465.63" width="40" height="20" as="geometry" />
        </mxCell>
        <mxCell id="QUAZW8t2TdC763v6tmOx-89" value="False" style="text;html=1;align=center;verticalAlign=middle;resizable=0;points=[];autosize=1;strokeColor=none;" vertex="1" parent="WIyWlLk6GJQsqaUBKTNV-1">
          <mxGeometry x="1510" y="600" width="40" height="20" as="geometry" />
        </mxCell>
        <mxCell id="QUAZW8t2TdC763v6tmOx-90" value="Main" style="text;html=1;align=center;verticalAlign=middle;resizable=0;points=[];autosize=1;strokeColor=none;" vertex="1" parent="WIyWlLk6GJQsqaUBKTNV-1">
          <mxGeometry x="320" y="40" width="40" height="20" as="geometry" />
        </mxCell>
        <mxCell id="QUAZW8t2TdC763v6tmOx-91" value="Function" style="text;html=1;align=center;verticalAlign=middle;resizable=0;points=[];autosize=1;strokeColor=none;" vertex="1" parent="WIyWlLk6GJQsqaUBKTNV-1">
          <mxGeometry x="670" y="40" width="60" height="20" as="geometry" />
        </mxCell>
        <mxCell id="QUAZW8t2TdC763v6tmOx-92" value="Function" style="text;html=1;align=center;verticalAlign=middle;resizable=0;points=[];autosize=1;strokeColor=none;" vertex="1" parent="WIyWlLk6GJQsqaUBKTNV-1">
          <mxGeometry x="1370" y="40" width="60" height="20" as="geometry" />
        </mxCell>
      </root>
    </mxGraphModel>
  </diagram>
</mxfile>
